<?xml version="1.0" encoding="UTF-8" standalone="no"?>
<!-- Created with Inkscape (http://www.inkscape.org/) -->

<svg
   xmlns:dc="http://purl.org/dc/elements/1.1/"
   xmlns:cc="http://creativecommons.org/ns#"
   xmlns:rdf="http://www.w3.org/1999/02/22-rdf-syntax-ns#"
   xmlns:svg="http://www.w3.org/2000/svg"
   xmlns="http://www.w3.org/2000/svg"
   xmlns:sodipodi="http://sodipodi.sourceforge.net/DTD/sodipodi-0.dtd"
   xmlns:inkscape="http://www.inkscape.org/namespaces/inkscape"
   width="744.09448819"
   height="1052.3622047"
   id="svg2"
   version="1.1"
   inkscape:version="0.48.4 r9939"
   sodipodi:docname="New document 1">
  <defs
     id="defs4" />
  <sodipodi:namedview
     id="base"
     pagecolor="#ffffff"
     bordercolor="#666666"
     borderopacity="1.0"
     inkscape:pageopacity="0.0"
     inkscape:pageshadow="2"
     inkscape:zoom="1.3758947"
     inkscape:cx="540.22364"
     inkscape:cy="834.60843"
     inkscape:document-units="px"
     inkscape:current-layer="layer2"
     showgrid="false"
     inkscape:window-width="1920"
     inkscape:window-height="1011"
     inkscape:window-x="-8"
     inkscape:window-y="-8"
     inkscape:window-maximized="1" />
  <metadata
     id="metadata7">
    <rdf:RDF>
      <cc:Work
         rdf:about="">
        <dc:format>image/svg+xml</dc:format>
        <dc:type
           rdf:resource="http://purl.org/dc/dcmitype/StillImage" />
        <dc:title></dc:title>
      </cc:Work>
    </rdf:RDF>
  </metadata>
  <g
     inkscape:groupmode="layer"
     id="layer2"
     inkscape:label="Layer">
    <path
       style="color:#000000;fill:#ffcc00;fill-opacity:1;fill-rule:nonzero;stroke:none;stroke-width:5;marker:none;visibility:visible;display:inline;overflow:visible;enable-background:accumulate"
       d="m 72.185406,51.609434 c -1.951584,13.95237 -1.312264,29.15812 -0.368079,43.195686 5.364207,6.32602 18.220614,1.379368 15.821185,-7.896983 -5.031475,-14.411258 13.105678,-4.6516 17.325228,-12.483383 1.72174,-9.848396 -23.249165,-1.188231 -15.631737,-9.320314 6.882104,-0.08702 21.596017,2.313384 20.216047,-8.890828 -2.81242,-9.376993 -16.871807,-4.640741 -24.238088,-5.927218 -4.357588,0.42502 -9.21648,-1.105848 -13.124556,1.32304 z"
       id="path3776"
       inkscape:connector-curvature="0" />
    <path
       style="color:#000000;fill:#ffcc00;fill-opacity:1;fill-rule:nonzero;stroke:none;stroke-width:5;marker:none;visibility:visible;display:inline;overflow:visible;enable-background:accumulate"
       d="m 140.45426,50.339315 c -6.2292,-0.631283 -7.86819,5.807602 -12.54241,7.885318 -10.71429,5.395032 -12.76053,23.020028 -4.23373,31.8588 4.41554,1.812742 5.74666,7.73676 11.69567,7.091494 6.54741,0.511029 15.35345,0.639816 17.51705,-6.721043 4.33384,-2.635991 8.37864,-5.984438 7.46194,-12.013202 -0.28994,-6.727108 2.07997,-17.652668 -6.19182,-20.110206 -3.22862,-3.333336 -4.47415,-8.959878 -10.79601,-7.991161 -0.96854,-0.08418 -1.94185,-0.05748 -2.91069,0 z m -0.95259,14.765125 c 2.12608,0.635052 3.71227,4.498783 6.03307,5.398003 0.34356,3.955153 0.88096,7.841852 -3.54575,9.420044 -2.31005,6.45429 -5.62522,-1.569636 -8.52038,-2.857766 -0.34356,-3.955154 -0.88096,-7.841853 3.54575,-9.420044 1.23035,-0.742171 0.51996,-3.221141 2.48731,-2.540237 z"
       id="path3778"
       inkscape:connector-curvature="0" />
    <path
       style="color:#000000;fill:#ffcc00;fill-opacity:1;fill-rule:nonzero;stroke:none;stroke-width:5;marker:none;visibility:visible;display:inline;overflow:visible;enable-background:accumulate"
       d="m 177.02309,50.49808 c -10.47823,7.561861 -7.04046,23.00189 -7.58569,34.55666 -1.8136,6.93466 4.32594,15.89638 11.66065,10.955912 5.56776,-4.733135 1.42568,-15.349842 3.65159,-19.739755 2.41366,2.605832 2.95888,6.969606 6.87981,7.779474 2.52507,4.074133 7.17179,7.141846 11.90735,8.097004 11.04538,-0.371387 6.81369,-15.510036 7.72656,-22.597521 0.14303,-6.79205 1.53609,-21.196591 -9.36713,-19.051774 -7.17792,1.611841 -4.88448,11.535331 -5.60968,15.876479 -5.22726,-2.250496 -6.65883,-8.880772 -12.27781,-10.901849 -0.40793,-3.208114 -3.6994,-6.020217 -6.98565,-4.97463 z"
       id="path3780"
       inkscape:connector-curvature="0" />
    <path
       style="color:#000000;fill:#ffcc00;fill-opacity:1;fill-rule:nonzero;stroke:none;stroke-width:5;marker:none;visibility:visible;display:inline;overflow:visible;enable-background:accumulate"
       d="m 231.69109,50.392237 c -7.02654,-1.809291 -15.032,4.963418 -10.21387,11.854437 3.89806,5.715679 15.55934,-1.130862 12.22489,8.996671 1.8527,5.463143 -2.27468,6.882773 -4.39249,10.690162 -2.61839,6.81769 0.1152,17.323448 9.26128,15.347263 13.95787,3.20621 9.29928,-13.465677 9.94926,-21.803697 -1.41327,-7.596657 -0.11654,-11.782149 7.62071,-10.690162 9.40667,-1.073375 6.63299,-16.005005 -2.59316,-14.288831 -7.27993,-0.289085 -14.57404,-0.291646 -21.85662,-0.105843 z"
       id="path3782"
       inkscape:connector-curvature="0" />
    <path
       style="color:#000000;fill:#ffcc00;fill-opacity:1;fill-rule:nonzero;stroke:none;stroke-width:5;marker:none;visibility:visible;display:inline;overflow:visible;enable-background:accumulate"
       d="m 271.88461,50.485319 c -3.16016,4.665287 -0.78836,10.900954 -1.52174,16.239433 0.30661,9.397777 -0.62124,18.999362 0.46724,28.268052 2.53325,4.753592 9.28245,1.800973 13.70536,2.620939 7.57671,-0.473785 15.47514,1.00104 22.82606,-0.840362 2.7088,-3.70375 1.47977,-9.021278 1.05449,-13.255093 -2.53324,-4.753593 -9.28244,-1.800974 -13.70535,-2.62094 -3.67379,0.849723 -12.88422,-1.086076 -4.7242,-1.4536 4.71588,-0.810279 11.78261,2.233564 14.42243,-3.043474 1.10517,-4.174949 -0.83073,-9.833784 -6.06423,-8.585322 -3.67934,-0.681465 -10.09244,1.370837 -11.9922,-1.0902 1.95323,-2.528697 8.58849,-0.375374 12.3556,-1.0902 3.80634,0.153356 10.42851,0.815579 10.17519,-4.724199 -0.0844,-4.058658 1.3276,-11.379394 -4.7242,-11.265396 -10.3674,0.303229 -20.93594,-0.611833 -31.17525,0.467238 l -0.68823,0.233619 -0.41097,0.139505 z"
       id="path3788"
       inkscape:connector-curvature="0" />
    <path
       style="color:#000000;fill:#ffcc00;fill-opacity:1;fill-rule:nonzero;stroke:none;stroke-width:5;marker:none;visibility:visible;display:inline;overflow:visible;enable-background:accumulate"
       d="m 326.41731,49.667669 c -2.92137,-0.337759 -4.41216,2.850825 -5.54185,4.338086 -6.28499,1.219192 -3.32885,8.948431 -3.9974,13.445797 0.30877,9.155153 -0.62271,18.51507 0.46724,27.541252 2.10562,4.343249 8.31237,2.268023 12.21319,2.38732 5.53037,-1.714387 2.56062,-8.900925 3.30917,-13.212177 0.008,-2.410054 -0.8898,-6.866001 2.33938,-4.519786 0.0407,3.44276 4.52426,3.017462 4.86048,5.814398 1.88722,2.50278 4.68719,2.512822 4.5425,6.268648 3.47925,2.615435 8.52544,1.546309 12.52829,1.054499 4.75359,-2.533246 1.80097,-9.282448 2.62094,-13.705358 -0.3076,-8.91308 0.62188,-18.0304 -0.46724,-26.814452 -2.10562,-4.343249 -8.31237,-2.268024 -12.21319,-2.38732 -5.6049,1.812715 -2.52188,9.152001 -3.30917,13.575577 -1.78894,1.753321 -1.52449,-2.933847 -3.24788,-3.792987 -1.87968,-1.283213 -3.97815,-0.886177 -4.35921,-3.55462 -1.37173,-1.90953 -3.91527,-1.529637 -4.22988,-4.136204 -1.0904,-1.914586 -3.46996,-2.471453 -5.51537,-2.302673 z"
       id="path3790"
       inkscape:connector-curvature="0" />
    <path
       style="color:#000000;fill:#ffcc00;fill-opacity:1;fill-rule:nonzero;stroke:none;stroke-width:5;marker:none;visibility:visible;display:inline;overflow:visible;enable-background:accumulate"
       d="m 383.08498,50.485319 c -0.98182,3.078081 -2.34984,3.718531 -5.06489,5.019461 -0.93062,2.712812 -2.75982,3.207051 -4.81504,4.928611 -0.38564,3.52555 -3.61295,2.936978 -5.10354,5.698299 -0.6605,6.073715 -0.42233,12.589358 -0.11384,18.724486 0.57584,3.507622 4.93421,2.389668 5.03492,6.051292 2.71042,1.77267 3.71184,3.536754 5.5182,5.967389 5.82963,1.730004 12.50063,0.24363 18.64865,0.738886 4.62937,0.556715 3.5369,-4.937112 7.19445,-5.586873 2.07893,-1.688869 1.17859,-4.969993 4.72961,-4.701886 3.16015,-4.665288 0.78836,-10.900954 1.52173,-16.239433 -0.42095,-4.335459 1.93876,-12.364078 -4.49707,-12.718997 0.0633,-2.61622 -3.05466,-3.630271 -4.22452,-4.724198 -1.3094,-6.38251 -9.19757,-3.278272 -13.8092,-3.997399 -1.78999,-0.1834 -3.37652,0.126184 -5.01946,0.840362 z m 6.47306,15.149233 c 1.61321,0.468142 1.23863,4.374081 3.92926,4.656061 1.74705,0.45915 2.31651,6.716511 -0.3634,6.836461 -2.31907,0.418855 -2.3343,5.399315 -4.49707,3.338737 -0.45533,-2.279538 -2.64522,-3.79029 -4.88319,-3.906549 0.0152,-3.192437 -1.00334,-6.499647 2.98681,-6.903006 2.00083,-0.623918 1.26507,-3.970515 2.82759,-4.021704 z"
       id="path3792"
       inkscape:connector-curvature="0" />
    <path
       style="color:#000000;fill:#ffcc00;fill-opacity:1;fill-rule:nonzero;stroke:none;stroke-width:5;marker:none;visibility:visible;display:inline;overflow:visible;enable-background:accumulate"
       d="m 420.15177,50.485319 c -2.60946,3.465245 -1.55052,8.494441 -1.0545,12.482869 2.3714,4.576748 8.81222,2.054288 13.06941,2.916202 -0.97355,3.257076 2.35913,10.131583 -1.50588,10.885778 -5.53037,1.714387 -2.56062,8.900925 -3.30917,13.212177 -1.16008,4.507645 2.06322,8.945925 6.9046,7.631398 4.63444,-0.762959 12.54591,2.356684 14.14495,-3.765177 0.0645,-9.40139 0.009,-18.809891 0.0276,-28.214014 4.56431,-0.690921 12.55377,2.302313 13.8092,-3.997399 -0.23183,-4.218382 1.6333,-12.005339 -4.7242,-11.992196 -11.84483,0.158896 -23.79401,-0.314244 -35.57462,0.233619 -0.59581,0.202248 -1.19162,0.404495 -1.78743,0.606743 z"
       id="path3794"
       inkscape:connector-curvature="0" />
    <path
       style="color:#000000;fill:#ffcc00;fill-opacity:1;fill-rule:nonzero;stroke:none;stroke-width:5;marker:none;visibility:visible;display:inline;overflow:visible;enable-background:accumulate"
       d="m 481.20295,50.485319 c -3.16015,4.665287 -0.78836,10.900954 -1.52173,16.239433 0.3066,9.397777 -0.62125,18.999362 0.46723,28.268052 2.12622,4.501643 8.26667,1.954917 12.25176,2.620939 5.06296,-0.570447 3.97271,-6.379798 3.9974,-10.016209 2.67098,0.151481 1.27892,4.248597 4.08825,4.951323 2.86866,0.354288 2.4663,4.880834 5.95067,4.928611 3.11542,0.804779 6.86332,-0.938683 7.33614,-4.247236 7.00142,0.01143 6.94593,-12.414247 -0.0681,-12.310172 0.0285,-2.693886 -3.04883,-3.690868 -4.42894,-4.792336 -1.68172,-2.043224 -0.88207,-4.206843 0.74952,-5.678123 2.65568,-0.28761 3.20109,-3.47439 4.22452,-4.883186 6.50413,-0.582242 6.09792,-11.708779 -0.5451,-11.515235 -0.6399,-5.941611 -10.80112,-5.883939 -11.37896,0.06814 -2.74782,-0.05651 -3.77055,3.071703 -4.9059,4.451649 -2.63588,-0.164337 0.89112,-8.182499 -4.06553,-8.812448 -4.00249,0.03126 -8.36665,-0.786678 -12.15119,0.7268 z"
       id="path3796"
       inkscape:connector-curvature="0" />
    <path
       style="color:#000000;fill:#ffcc00;fill-opacity:1;fill-rule:nonzero;stroke:none;stroke-width:5;marker:none;visibility:visible;display:inline;overflow:visible;enable-background:accumulate"
       d="m 541.52734,50.485319 c -3.13561,3.102091 0.58302,8.640997 -4.75223,9.333989 -2.7848,3.128724 1.29215,9.133906 -4.69617,8.836006 -3.13561,3.102091 0.58302,8.640997 -4.75223,9.333989 -2.48844,4.627368 -0.4874,10.499185 -1.13031,15.627041 1.21919,6.284994 8.94843,3.32885 13.4458,3.997399 4.50764,1.16008 8.94592,-2.063223 7.6314,-6.904598 1.61781,-6.997139 0.64591,4.004917 2.90635,5.774287 4.62737,2.488445 10.49918,0.487402 15.62704,1.130311 6.28499,-1.219191 3.32885,-8.948431 3.9974,-13.445796 -0.43085,-7.923664 0.89286,-16.137004 -0.70086,-23.868682 -2.64721,-1.610906 -4.15179,-2.622646 -5.88576,-5.316872 -3.63875,-0.266768 -2.75965,-3.999926 -5.90525,-5.223874 -5.17869,0.150539 -10.83795,-0.952583 -15.78518,0.7268 z m 8.65346,20.236832 c 5.47318,-1.02367 3.43446,8.982774 -2.1804,5.814398 -1.18653,-0.888997 -1.92599,-7.76061 2.1804,-5.814398 z"
       id="path3798"
       inkscape:connector-curvature="0" />
    <path
       style="color:#000000;fill:#ffcc00;fill-opacity:1;fill-rule:nonzero;stroke:none;stroke-width:5;marker:none;visibility:visible;display:inline;overflow:visible;enable-background:accumulate"
       d="m 578.59413,50.485319 c -3.16016,4.665287 -0.78837,10.900954 -1.52174,16.239433 0.3066,9.397777 -0.62125,18.999362 0.46724,28.268052 2.12621,4.501643 8.26666,1.954917 12.25175,2.620939 6.37778,-1.313278 3.28547,-9.19248 3.9974,-13.809196 2.65018,-0.703677 1.97572,3.856793 4.86048,3.997399 2.00392,0.412433 0.99904,4.178655 3.58857,4.746911 2.85443,0.344882 2.4264,4.831154 5.88254,4.905899 3.25156,0.791137 7.73065,-0.430212 8.08564,-4.315374 6.09616,-0.668463 6.08764,-11.460554 0,-12.128472 -1.12059,-2.359579 -1.73627,-3.432993 -0.0454,-5.700836 2.84312,-0.761805 5.06289,-3.887914 4.51979,-7.154435 0.54879,-3.902025 -0.27528,-9.068646 -4.51979,-10.01621 -0.0952,-2.807241 -3.43463,-3.614156 -4.92861,-4.497073 -1.21919,-6.284993 -8.94843,-3.328851 -13.4458,-3.997399 -6.34325,0.442735 -13.08724,-0.956864 -19.19205,0.840362 z m 20.28225,15.149233 c 3.93117,-1.3571 7.48818,1.882874 2.65736,3.361449 -1.48073,3.190433 -3.45589,3.705824 -7.01816,3.179749 -1.56984,-3.1992 -1.89093,-8.435661 4.3608,-6.541198 z"
       id="path3800"
       inkscape:connector-curvature="0" />
    <path
       style="color:#000000;fill:#ff6600;fill-opacity:1;fill-rule:nonzero;stroke:none;stroke-width:5;marker:none;visibility:visible;display:inline;overflow:visible;enable-background:accumulate"
       d="m 629.47011,50.485319 c -2.61543,3.479254 -1.54631,8.525445 -1.0545,12.528294 2.44069,4.682555 9.01087,1.859165 13.34196,2.620939 -1.01872,3.473909 2.11862,10.087822 -1.73986,11.369236 -4.75359,2.533245 -1.80097,9.282447 -2.62094,13.705357 -1.25478,4.865056 3.11951,8.119514 7.6314,6.904598 4.29728,-0.502924 11.68961,1.975329 12.719,-3.997399 0,-9.327263 0,-18.654528 0,-27.981792 4.56431,-0.690921 12.55377,2.302313 13.80919,-3.997399 -0.23183,-4.218382 1.6333,-12.005339 -4.7242,-11.992196 -11.84483,0.158896 -23.79401,-0.314244 -35.57462,0.233619 -0.59581,0.202248 -1.19162,0.404495 -1.78743,0.606743 z"
       id="path3804"
       inkscape:connector-curvature="0" />
    <path
       style="color:#000000;fill:#ff6600;fill-opacity:1;fill-rule:nonzero;stroke:none;stroke-width:5;marker:none;visibility:visible;display:inline;overflow:visible;enable-background:accumulate"
       d="m 498.71428,117.32819 c -1.71761,6.08062 -0.22889,12.83313 -0.72679,19.16934 0.30889,3.37149 -1.62463,10.34116 3.86112,9.67552 4.00094,0.98966 6.1127,-2.97606 5.31472,-6.40492 -0.47228,-2.77564 8.35864,-2.77076 6.08695,1.43089 -0.91854,4.80215 5.04345,6.31585 8.44905,4.29266 1.71761,-6.08062 0.22889,-12.83313 0.7268,-19.16934 -0.30889,-3.3715 1.62462,-10.34116 -3.86113,-9.67553 -5.64512,-1.5654 -5.87168,4.30631 -5.31472,8.22193 -1.73426,5.7604 -4.61728,-1.53429 -3.17975,-5.0876 -0.30662,-5.02053 -7.07528,-2.81724 -10.34907,-2.86126 l -0.67356,0.27306 -0.33362,0.13525 z"
       id="path3828"
       inkscape:connector-curvature="0" />
    <path
       style="color:#000000;fill:#ff6600;fill-opacity:1;fill-rule:nonzero;stroke:none;stroke-width:5;marker:none;visibility:visible;display:inline;overflow:visible;enable-background:accumulate"
       d="m 223.98396,120.23539 c -1.71761,6.08061 -0.22889,12.83313 -0.7268,19.16934 -1.37291,4.83469 1.92717,8.20599 6.76833,6.76832 2.91641,0.50885 6.06227,-0.644 7.19986,-3.15703 1.78223,-0.81254 2.65058,-2.55891 4.13367,-3.74756 0.61683,-1.88486 3.80721,-2.17928 3.36145,-4.92861 0.36912,-2.8892 0.15214,-6.93709 -3.17975,-7.69954 -1.68242,-1.25265 -2.06051,-3.1364 -3.70214,-4.42894 -2.11044,-0.9703 -3.76558,-3.24763 -6.60933,-2.63465 -2.4134,0.1234 -5.04486,-0.53538 -7.24529,0.65867 z m 8.49447,8.49447 c 0.78977,0.83862 2.82212,1.67876 3.13433,2.74821 -0.50986,0.9727 -2.40146,1.64303 -2.97534,2.92991 -0.39995,-1.09419 -0.15929,-4.04165 -0.15899,-5.67812 z"
       id="path3830"
       inkscape:connector-curvature="0" />
    <path
       style="color:#000000;fill:#ff6600;fill-opacity:1;fill-rule:nonzero;stroke:none;stroke-width:5;marker:none;visibility:visible;display:inline;overflow:visible;enable-background:accumulate"
       d="m 73.536404,51.916206 c -1.717614,6.080617 -0.228891,12.833134 -0.7268,19.169345 0.357572,7.925073 -0.723935,16.130759 0.546125,23.877901 2.99335,1.981306 7.765174,1.151415 11.203305,0.514292 2.380771,-3.868597 0.440927,-9.350202 1.060417,-13.853596 -1.883263,-6.092645 5.314572,-3.104192 8.857872,-3.770274 3.449181,-0.100142 10.307037,1.361778 9.312127,-4.224524 0.92621,-5.858567 -6.141517,-3.992037 -9.675527,-4.224524 -3.108526,-0.721628 -10.052415,2.226325 -8.304187,-3.13365 0.427144,-4.049926 7.672573,-1.106861 11.074741,-2.107716 3.598363,-0.858467 9.668703,1.828886 11.265763,-2.571732 -0.46209,-3.522729 1.9049,-10.91637 -3.86112,-10.356897 -9.897591,0.181232 -19.936645,-0.363003 -29.745545,0.273063 l -0.673554,0.273062 -0.333617,0.13525 z"
       id="path3832"
       inkscape:connector-curvature="0" />
    <path
       style="color:#000000;fill:#ff6600;fill-opacity:1;fill-rule:nonzero;stroke:none;stroke-width:5;marker:none;visibility:visible;display:inline;overflow:visible;enable-background:accumulate"
       d="m 133.13399,51.916206 c -0.73052,2.753217 -0.81581,3.890481 -3.72485,4.497074 -1.77953,1.338871 -0.60099,4.180924 -3.36145,3.815699 -2.05496,0.607454 -2.4727,2.971939 -2.3621,4.815048 -5.62152,-1.081845 -4.34547,5.484729 -4.3608,8.948723 0.64794,3.905077 -1.46376,9.18127 1.34703,12.147715 2.60094,0.218312 3.21606,0.809224 3.37717,3.364918 0.51008,2.804283 5.08985,1.005748 3.9974,4.110961 1.53979,4.443291 7.57232,1.6095 11.12912,2.407525 3.5477,-0.769942 9.60775,1.977938 11.12912,-2.407525 -1.08431,-3.137081 3.94876,-1.34939 4.13368,-4.519786 -0.77324,-3.774037 3.60405,-1.499766 4.44471,-4.533768 -0.008,-7.755408 0.74954,-15.916628 -0.40291,-23.545945 -1.85371,-1.610059 -4.36099,-0.418477 -4.31435,-3.581503 -0.75437,-2.475055 -4.95432,-0.722704 -3.86113,-3.792986 -1.53978,-4.443291 -7.57232,-1.6095 -11.12912,-2.407525 -2.03951,0.132101 -4.19326,-0.431517 -6.04152,0.681375 z m 6.40492,12.128472 c 3.87754,-1.44648 1.21454,3.68625 4.15639,4.587923 3.71815,-0.0071 2.29558,3.644718 2.52108,6.450349 1.30905,3.608128 -1.60117,2.656951 -3.42958,4.269948 -0.8684,2.609308 -1.50608,3.847989 -4.70149,3.134324 -1.61948,-0.157648 -0.75695,-4.064953 -3.42959,-4.133673 -3.55691,0.527789 -2.4516,-2.824867 -2.52108,-5.450999 -0.81703,-3.240729 0.30994,-3.984314 3.06618,-4.179099 3.4249,-0.986642 0.15304,-6.039697 4.33809,-4.678773 z"
       id="path3834"
       inkscape:connector-curvature="0" />
    <path
       style="color:#000000;fill:#ffe680;fill-opacity:1;fill-rule:nonzero;stroke:none;stroke-width:5;marker:none;visibility:visible;display:inline;overflow:visible;enable-background:accumulate"
       d="m 579.38906,51.916206 c -1.71761,6.080617 -0.22889,12.833134 -0.7268,19.169345 0.35757,7.925073 -0.72393,16.130759 0.54613,23.877901 3.22167,2.053027 8.25858,1.095199 11.9301,0.514292 2.3742,-3.671797 0.43389,-8.960898 1.06042,-13.263071 2.62707,-0.07537 5.15511,-0.693272 5.13302,2.521086 0.93736,2.413037 4.73962,0.805018 3.97469,3.838412 -0.1042,2.724055 3.46441,2.629688 4.29266,3.724849 -0.0725,5.431038 9.97749,4.888041 9.13042,-0.63595 5.89008,0.805684 5.89008,-9.981532 0,-9.175848 0.48823,-3.052995 -2.69305,-4.681705 -5.0876,-4.497073 2.39059,0.173593 5.57793,-1.437434 5.0876,-4.497074 5.22064,0.469384 4.52385,-6.058014 4.31538,-9.425685 0.22166,-2.411336 -1.90869,-4.476889 -4.31538,-4.110961 0.39621,-2.899997 -2.41367,-4.829987 -5.0876,-4.360799 1.08185,-5.621516 -5.48472,-4.345473 -8.94872,-4.360799 -7.03345,0.4156 -14.50434,-0.855551 -21.30432,0.681375 z m 19.48732,12.128472 c 4.79184,-1.326699 8.86534,0.887069 6.15509,5.382861 -2.36897,-0.139989 -4.08024,2.083333 -3.83841,4.338086 -3.42203,-0.787353 -10.83895,2.420184 -8.99415,-3.633999 -0.85012,-6.709191 0.39134,-6.485818 6.67747,-6.086948 z"
       id="path3836"
       inkscape:connector-curvature="0" />
    <path
       style="color:#000000;fill:#ffe680;fill-opacity:1;fill-rule:nonzero;stroke:none;stroke-width:5;marker:none;visibility:visible;display:inline;overflow:visible;enable-background:accumulate"
       d="m 326.55358,51.257544 c -2.33558,-0.10702 -3.92997,2.147629 -3.72485,4.338086 -5.62151,-1.081845 -4.34547,5.484728 -4.36079,8.948722 0.18569,9.896722 -0.36903,19.93782 0.27306,29.745546 2.07447,3.272614 7.47927,1.35847 10.80281,1.460908 3.52953,-2.317068 0.9454,-7.914482 1.73397,-11.582859 0.14441,-2.647776 -0.31886,-10.631814 0.29526,-10.129772 -0.17557,2.741432 2.6601,4.177569 5.06489,3.815699 -0.30859,2.51354 1.84726,4.669385 4.3608,4.360799 -0.40833,2.664727 2.13073,4.533673 4.3608,4.497073 -1.3861,5.264237 4.21184,5.449526 7.85852,4.951324 5.46695,1.413165 5.38728,-4.533628 4.95132,-8.221923 -0.18586,-10.138954 0.36891,-20.422329 -0.27306,-30.472345 -2.07447,-3.272614 -7.47927,-1.358471 -10.80281,-1.460908 -3.49123,2.208978 -0.97078,7.663742 -1.73397,11.219459 -0.0399,1.296295 0.22832,9.45836 -0.45425,5.019461 -0.27821,-2.075375 -2.67541,-2.648821 -4.1791,-2.839062 0.55639,-3.028595 -2.08421,-5.540685 -5.0876,-4.951323 0.30859,-2.51354 -1.84726,-4.669386 -4.3608,-4.360799 0.22355,-2.78998 -1.96521,-4.761504 -4.7242,-4.338086 z"
       id="path3838"
       inkscape:connector-curvature="0" />
    <path
       style="color:#000000;fill:#ffe680;fill-opacity:1;fill-rule:nonzero;stroke:none;stroke-width:5;marker:none;visibility:visible;display:inline;overflow:visible;enable-background:accumulate"
       d="m 383.15312,51.916206 c -0.73052,2.753217 -0.81581,3.890481 -3.72485,4.497074 -1.77953,1.338871 -0.60099,4.180924 -3.36145,3.815699 -2.05496,0.607454 -2.4727,2.971939 -2.3621,4.815048 -5.62152,-1.081845 -4.34547,5.484729 -4.3608,8.948723 0.64794,3.905077 -1.46376,9.18127 1.34703,12.147715 2.60094,0.218312 3.21606,0.809224 3.37717,3.364918 0.51008,2.804283 5.08985,1.005748 3.9974,4.110961 1.53979,4.443291 7.57232,1.6095 11.12912,2.407525 3.5477,-0.769942 9.60775,1.977938 11.12912,-2.407525 -1.08431,-3.137081 3.94876,-1.34939 4.13368,-4.519786 -0.77324,-3.774037 3.60405,-1.499766 4.44471,-4.533768 -0.008,-7.755408 0.74954,-15.916628 -0.40291,-23.545945 -1.85371,-1.610059 -4.36099,-0.418477 -4.31435,-3.581503 -0.75437,-2.475055 -4.95432,-0.722704 -3.86113,-3.792986 -1.53978,-4.443291 -7.57232,-1.6095 -11.12912,-2.407525 -2.03951,0.132101 -4.19326,-0.431517 -6.04152,0.681375 z m 6.40492,12.128472 c 3.87754,-1.44648 1.21454,3.68625 4.15639,4.587923 3.71815,-0.0071 2.29558,3.644718 2.52108,6.450349 1.30905,3.608128 -1.60117,2.656951 -3.42958,4.269948 -0.8684,2.609308 -1.50608,3.847989 -4.70149,3.134324 -1.61948,-0.157648 -0.75695,-4.064953 -3.42959,-4.133673 -3.55691,0.527789 -2.4516,-2.824867 -2.52108,-5.450999 -0.81703,-3.240729 0.30994,-3.984314 3.06618,-4.179099 3.4249,-0.986642 0.15304,-6.039697 4.33809,-4.678773 z"
       id="path3840"
       inkscape:connector-curvature="0" />
    <path
       style="color:#000000;fill:#ffe680;fill-opacity:1;fill-rule:nonzero;stroke:none;stroke-width:5;marker:none;visibility:visible;display:inline;overflow:visible;enable-background:accumulate"
       d="m 420.94671,51.916206 c -1.27616,3.481623 -1.06504,7.84084 -0.0454,11.356247 3.98987,1.597694 8.57352,0.560979 12.80985,1.067487 0.0231,4.553473 0.37086,9.422116 0.20441,13.786484 -5.47832,-1.423086 -5.41768,4.51947 -4.97404,8.221922 0.3089,3.371491 -1.62462,10.341157 3.86113,9.675523 4.41011,-0.362507 9.11389,0.781064 13.30952,-0.681375 1.71761,-6.080617 0.22889,-12.833134 0.7268,-19.169345 0.88316,-3.644193 -1.8239,-10.878616 1.4536,-12.128471 3.83826,-0.62862 9.0245,1.447621 11.92059,-1.347029 0.44379,-3.361158 1.5183,-8.444391 -0.91202,-11.027811 -9.73631,-1.03607 -19.87967,-0.12964 -29.76909,-0.435007 -2.84281,0.27822 -5.95679,-0.662091 -8.58532,0.681375 z"
       id="path3842"
       inkscape:connector-curvature="0" />
    <path
       style="color:#000000;fill:#ffe680;fill-opacity:1;fill-rule:nonzero;stroke:none;stroke-width:5;marker:none;visibility:visible;display:inline;overflow:visible;enable-background:accumulate"
       d="m 344.70087,119.57672 c -4.03416,-0.0123 -3.85232,4.73852 -3.74757,7.58598 -2.82635,1.19647 -1.67055,5.07723 -2.38481,7.06358 -4.02482,1.7752 -2.65547,7.58469 -2.11123,10.88636 3.86933,2.37877 9.34973,0.44235 13.85359,1.06041 3.44481,-0.38463 10.6468,1.78005 10.03892,-3.86112 1.5654,-5.64512 -4.3063,-5.87168 -8.22192,-5.31472 -3.27758,0.96254 -5.08462,-0.62826 -3.92926,-3.56586 3.34216,-2.89529 1.66047,-8.35305 1.70292,-12.14337 -0.50474,-2.28617 -3.51537,-1.67302 -5.20064,-1.71126 z"
       id="path3846"
       inkscape:connector-curvature="0" />
    <path
       style="color:#000000;fill:#ffe680;fill-opacity:1;fill-rule:nonzero;stroke:none;stroke-width:5;marker:none;visibility:visible;display:inline;overflow:visible;enable-background:accumulate"
       d="m 364.98312,120.23539 c -1.71761,6.08061 -0.22889,12.83313 -0.7268,19.16934 -1.37291,4.83469 1.92717,8.20599 6.76833,6.76832 4.64802,-0.3848 9.60678,0.82394 14.03632,-0.68137 1.74152,-3.2306 1.22758,-9.81853 -3.86113,-8.49447 -2.45491,0.38172 -11.93303,-0.29534 -5.04217,-0.99935 3.08716,0.49938 9.44649,-0.79454 6.70018,-4.88319 -2.51701,-2.37802 -7.25594,-0.50889 -9.42568,-1.88514 2.88133,-1.50104 8.13936,0.60308 11.6288,-1.18105 1.74152,-3.23059 1.22758,-9.81853 -3.86113,-8.49447 -5.33029,0.41433 -11.12479,-0.85512 -16.21672,0.68138 z"
       id="path3848"
       inkscape:connector-curvature="0" />
    <path
       style="color:#000000;fill:#ffe680;fill-opacity:1;fill-rule:nonzero;stroke:none;stroke-width:5;marker:none;visibility:visible;display:inline;overflow:visible;enable-background:accumulate"
       d="m 414.40551,117.32819 c -1.71762,6.08062 -0.22889,12.83313 -0.7268,19.16934 0.009,3.74177 -1.30162,11.01615 4.70148,9.65281 3.95694,-0.0597 3.93923,-4.85415 3.95198,-7.69953 3.53718,-0.35029 7.11751,-0.90661 5.92796,3.72485 -0.44906,5.80662 11.01933,5.50999 9.13042,-0.59053 -0.42332,-8.03225 0.86637,-16.39853 -0.68137,-24.21152 -3.2306,-1.74152 -9.81854,-1.22759 -8.49448,3.86113 2.33818,4.8332 -4.14586,8.63906 -3.17974,2.1804 1.26635,-4.58164 -1.63181,-8.1937 -6.40493,-6.76833 -1.48688,-0.0516 -2.90562,-0.12773 -4.22452,0.68138 z"
       id="path3850"
       inkscape:connector-curvature="0" />
    <path
       style="color:#000000;fill:#ffcc00;fill-opacity:1;fill-rule:nonzero;stroke:none;stroke-width:5;marker:none;visibility:visible;display:inline;overflow:visible;enable-background:accumulate"
       d="m 308.29274,120.23539 c -1.71762,6.08061 -0.22889,12.83313 -0.7268,19.16934 -1.37291,4.83469 1.92716,8.20599 6.76832,6.76832 3.86742,-0.72907 10.20302,1.7888 12.42374,-2.63464 1.16275,-0.61586 2.42572,-1.96519 3.45229,-2.92992 2.81723,-2.06779 2.29015,-7.25667 -0.70408,-8.76702 -1.93698,-1.50668 -0.54952,-1.91316 0.13627,-3.74756 0.63178,-2.42783 -0.0128,-6.05158 -3.04347,-6.31407 -2.92745,-3.83064 -8.87036,-1.5275 -12.99155,-2.22583 -1.81964,0.0729 -3.67652,-0.33303 -5.31472,0.68138 z m 10.44775,8.49447 c 5.93366,0.71168 -6.70056,1.23033 0,0 z m -0.0454,7.268 c 7.9418,0.90797 -7.73625,1.62563 0,0 z"
       id="path3852"
       inkscape:connector-curvature="0" />
    <path
       style="color:#000000;fill:#ffcc00;fill-opacity:1;fill-rule:nonzero;stroke:none;stroke-width:5;marker:none;visibility:visible;display:inline;overflow:visible;enable-background:accumulate"
       d="m 260.98261,119.57672 c -3.09126,-0.41381 -4.79908,2.13185 -6.67747,3.97469 -0.80697,3.25969 -5.7151,3.40521 -5.54185,7.31342 -0.0921,3.66923 -1.01176,9.15867 3.2706,10.58403 2.01704,1.69363 2.87118,5.11304 6.26865,4.67877 3.54467,0.13147 8.77901,0.82006 10.10706,-3.29331 1.71201,-1.9564 5.02364,-2.81764 4.65606,-6.1778 -0.49415,-3.73679 1.7212,-9.71427 -2.49837,-11.83321 -1.08036,-1.61123 -2.72838,-3.28371 -4.33809,-4.65606 -1.63452,-0.73344 -3.49528,-0.5989 -5.24659,-0.59053 z m -1.0902,9.17585 c 1.82506,-0.57976 2.47402,1.95294 4.04283,2.20311 0.38674,2.14848 0.17199,3.57053 -1.90785,4.29267 -0.57746,1.96427 -2.2918,2.36265 -2.83906,0.15898 -1.87202,-0.76853 -1.57054,-3.60042 -0.95393,-4.92861 0.7803,-0.2823 1.2104,-1.30532 1.65801,-1.72615 z"
       id="path3854"
       inkscape:connector-curvature="0" />
    <path
       style="color:#000000;fill:#ffcc00;fill-opacity:1;fill-rule:nonzero;stroke:none;stroke-width:5;marker:none;visibility:visible;display:inline;overflow:visible;enable-background:accumulate"
       d="m 277.76715,120.23539 c -1.55686,5.40309 -0.54528,11.45312 -0.49968,17.1025 0.20547,2.55862 2.37004,4.13633 4.1791,5.58728 1.29386,1.23721 2.56227,3.59452 5.11031,3.17975 3.7368,-0.49416 9.71427,1.7212 11.83321,-2.49838 1.71801,-1.29017 3.88056,-2.91768 4.86047,-5.11031 0.52152,-5.27605 0.98027,-10.93569 -0.27255,-16.03502 -3.23059,-1.74152 -9.81853,-1.22759 -8.49447,3.86113 -0.51562,3.23303 1.3153,7.41135 -1.65801,9.58467 -0.27138,1.76605 -4.15215,1.58844 -4.76962,0.40882 -1.25773,-1.62773 -2.42913,-2.76959 -1.83972,-5.13302 -0.801,-3.70987 2.04504,-9.95984 -2.40752,-11.6288 -2.03951,0.1321 -4.19326,-0.43152 -6.04152,0.68138 z"
       id="path3860"
       inkscape:connector-curvature="0" />
    <path
       style="color:#000000;fill:#ffcc00;fill-opacity:1;fill-rule:nonzero;stroke:none;stroke-width:5;marker:none;visibility:visible;display:inline;overflow:visible;enable-background:accumulate"
       d="m 453.33472,119.57672 c -2.96135,-0.35808 -4.40183,2.80497 -4.15638,5.17845 -3.71951,0.73561 -1.7198,5.21312 -4.38351,6.7229 -0.68566,1.48365 -0.23636,3.08682 -2.20312,3.49773 -2.12684,2.90205 -1.48332,7.25976 -0.61323,10.47045 3.32794,0.93244 9.30761,2.11283 11.25845,-1.28588 -0.37331,-3.53832 1.36549,-3.74248 1.3924,-0.48569 1.52359,3.7983 7.03778,2.54485 10.046,1.95225 2.33869,-3.71906 0.49916,-9.02106 1.04291,-13.37642 0.13881,-2.85957 -0.23312,-6.06572 -2.3446,-7.90416 -0.83328,-2.31761 -3.34919,-2.66866 -4.83776,-4.31538 -1.65286,-0.58813 -3.47352,-0.47077 -5.20116,-0.45425 z m 1.6353,11.33354 c 5.38478,0.48628 -2.61146,6.71368 -1.58987,0.86307 -0.55047,-1.39405 0.91643,-0.69962 1.58987,-0.86307 z"
       id="path3862"
       inkscape:connector-curvature="0" />
    <path
       style="color:#000000;fill:#ffcc00;fill-opacity:1;fill-rule:nonzero;stroke:none;stroke-width:5;marker:none;visibility:visible;display:inline;overflow:visible;enable-background:accumulate"
       d="m 479.97648,119.59944 c -3.20268,-0.30876 -5.38361,2.09913 -7.0863,4.3608 -0.81877,1.44899 -4.2395,2.03173 -3.0889,4.70148 0.6315,2.10137 3.33073,1.61088 3.634,3.88384 -0.0898,2.1051 -4.79528,2.51649 -3.72485,5.74626 0.71083,2.48455 3.5375,2.66919 4.83776,4.63335 1.50717,4.73803 7.85056,2.89847 11.65151,3.20246 2.49781,0.41757 4.37918,-1.4413 5.42829,-3.06619 3.44877,-1.72285 2.93234,-7.08675 1.43088,-9.99349 -1.18121,-1.04345 -4.88805,-2.12995 -2.40752,-3.70214 1.4021,-1.2316 4.58592,-2.72961 3.13432,-5.451 -1.11748,-1.92247 -3.33984,-2.33346 -4.81504,-3.83841 -2.8653,-0.82757 -6.01916,-0.46162 -8.99415,-0.47696 z m 4.31537,9.15313 c 3.6475,0.83475 -2.49027,1.41505 -0.13652,-0.004 l 0.13652,0.004 z m -3.04347,7.15444 c 3.88886,-0.38027 0.84793,2.75571 0,0.0454 l -0.0227,-0.0454 0.0227,0 z"
       id="path3864"
       inkscape:connector-curvature="0" />
    <path
       style="color:#000000;fill:#ffcc00;fill-opacity:1;fill-rule:nonzero;stroke:none;stroke-width:5;marker:none;visibility:visible;display:inline;overflow:visible;enable-background:accumulate"
       d="m 579.38906,51.916206 c -1.71761,6.080617 -0.22889,12.833134 -0.7268,19.169345 0.35757,7.925073 -0.72393,16.130759 0.54613,23.877901 3.22167,2.053027 8.25858,1.095199 11.9301,0.514292 2.3742,-3.671797 0.43389,-8.960898 1.06042,-13.263071 2.62707,-0.07537 5.15511,-0.693272 5.13302,2.521086 0.93736,2.413037 4.73962,0.805018 3.97469,3.838412 -0.1042,2.724055 3.46441,2.629688 4.29266,3.724849 -0.0725,5.431038 9.97749,4.888041 9.13042,-0.63595 5.89008,0.805684 5.89008,-9.981532 0,-9.175848 0.48823,-3.052995 -2.69305,-4.681705 -5.0876,-4.497073 2.39059,0.173593 5.57793,-1.437434 5.0876,-4.497074 5.22064,0.469384 4.52385,-6.058014 4.31538,-9.425685 0.22166,-2.411336 -1.90869,-4.476889 -4.31538,-4.110961 0.39621,-2.899997 -2.41367,-4.829987 -5.0876,-4.360799 1.08185,-5.621516 -5.48472,-4.345473 -8.94872,-4.360799 -7.03345,0.4156 -14.50434,-0.855551 -21.30432,0.681375 z m 19.48732,12.128472 c 4.79184,-1.326699 8.86534,0.887069 6.15509,5.382861 -2.36897,-0.139989 -4.08024,2.083333 -3.83841,4.338086 -3.42203,-0.787353 -10.83895,2.420184 -8.99415,-3.633999 -0.85012,-6.709191 0.39134,-6.485818 6.67747,-6.086948 z"
       id="path3866"
       inkscape:connector-curvature="0" />
  </g>
  <g
     inkscape:label="Layer 1"
     inkscape:groupmode="layer"
     id="layer1"
     style="display:inline">
    <flowRoot
       xml:space="preserve"
       id="flowRoot2985"
       style="font-size:40px;font-style:normal;font-weight:normal;text-align:center;line-height:125%;letter-spacing:0px;word-spacing:0px;text-anchor:middle;fill:#000000;fill-opacity:1;stroke:none;font-family:Sans"
       transform="translate(-185.71429,-14.285715)"><flowRegion
         id="flowRegion2987"><rect
           id="rect2989"
           width="1154.2858"
           height="445.71429"
           x="-17.142857"
           y="18.076468"
           style="text-align:center;text-anchor:middle" /></flowRegion><flowPara
         id="flowPara2991"
         style="font-size:72px;font-style:normal;font-variant:normal;font-weight:normal;font-stretch:normal;text-align:center;text-anchor:middle;fill:#000000;fill-opacity:1;stroke:none;font-family:Mario Kart DS;-inkscape-font-specification:Mario Kart DS">FONTENOT KART</flowPara><flowPara
         id="flowPara2993"
         style="font-style:normal;font-variant:normal;font-weight:normal;font-stretch:normal;text-align:center;text-anchor:middle;font-family:Mario Kart DS;-inkscape-font-specification:Mario Kart DS">DOUBLE    HASH</flowPara></flowRoot>  </g>
</svg>
